PathFileType	4	(X/Y/Z)	C:/Users/opensim2020/Desktop/walking_exp_matlab/subject02_walking05_straight_04.trc	
DataRate	CameraRate	NumFrames	NumMarkers	Units	OrigDataRate	OrigDataStartFrame	OrigNumFrames	
100.00	100.00	4	42	mm	100.00	2818	220	
Frame#	Time	LFHD			RFHD			LBHD			RBHD			C7			T10			CLAV			STRN			RBAK			LSHO			LUPA			LELB			LFRM			LWRA			LWRB			LFIN			RSHO			RUPA			RELB			RFRM			RWRA			RWRB			RFIN			LASI			RASI			LPSI			RPSI			LTHI			LKNE			LTIB			LANK			LHEE			LTOE			RTHI			RKNE			RTIB			RANK			RHEE			RTOE			*39			*40			*41			
		X1	Y1	Z1	X2	Y2	Z2	X3	Y3	Z3	X4	Y4	Z4	X5	Y5	Z5	X6	Y6	Z6	X7	Y7	Z7	X8	Y8	Z8	X9	Y9	Z9	X10	Y10	Z10	X11	Y11	Z11	X12	Y12	Z12	X13	Y13	Z13	X14	Y14	Z14	X15	Y15	Z15	X16	Y16	Z16	X17	Y17	Z17	X18	Y18	Z18	X19	Y19	Z19	X20	Y20	Z20	X21	Y21	Z21	X22	Y22	Z22	X23	Y23	Z23	X24	Y24	Z24	X25	Y25	Z25	X26	Y26	Z26	X27	Y27	Z27	X28	Y28	Z28	X29	Y29	Z29	X30	Y30	Z30	X31	Y31	Z31	X32	Y32	Z32	X33	Y33	Z33	X34	Y34	Z34	X35	Y35	Z35	X36	Y36	Z36	X37	Y37	Z37	X38	Y38	Z38	X39	Y39	Z39	X40	Y40	Z40	X41	Y41	Z41	X42	Y42	Z42	

83	0.820	1483.62488	269.32739	1743.96545	1341.18579	279.10513	1724.21313	1500.05737	401.68744	1674.07520	1359.59290	423.78021	1654.24353	1421.07141	465.71609	1533.63782	1403.22168	522.55505	1258.44666	1440.14160	328.35059	1461.05334	1425.19739	279.93503	1289.74341	1343.92273	521.70697	1363.16821	1604.43457	411.19656	1498.56726	1677.89124	462.24362	1301.98120	1684.24329	487.35220	1163.45129	1697.91589	501.61386	1032.44641	1669.31873	465.39313	898.00024	1700.72583	511.45074	908.95630	1701.62720	505.37042	841.26697	1241.46033	377.76425	1507.02759	1143.63318	379.75284	1320.51672	1117.08838	341.96762	1178.72046	1099.28198	285.71317	1072.12415	1119.95593	210.67912	961.10999	1083.56030	252.85112	947.24805	1081.94360	199.77216	897.30328	1540.91870	295.17587	998.05695	1285.39417	294.41293	977.83667	1460.45825	503.74899	1041.48450	1345.29626	506.86667	1040.61340	1616.48132	295.99408	697.55042	1591.79675	267.33084	503.39941	1580.23254	338.27664	324.76471	1553.14868	349.61429	102.03651	1493.55139	371.71255	77.31303	1598.58118	211.51680	47.32448	1239.07935	386.51257	670.45929	1290.10596	406.15518	462.61292	1290.07568	464.44290	282.55124	1337.57239	500.50769	93.87118	1394.31555	539.51831	41.94497	1322.74780	351.40948	37.40938	1399.02637	373.89630	1812.94263						 
84	0.830	1484.90332	259.83173	1742.92200	1342.25366	269.19949	1723.54260	1500.96277	392.30911	1673.18689	1360.31958	414.17166	1653.82068	1421.28333	456.29398	1533.01587	1403.78430	513.56152	1257.98828	1440.52686	318.99728	1460.27661	1425.07983	270.82425	1288.86707	1343.77893	512.27704	1362.71667	1604.35376	402.17520	1497.37305	1677.44885	455.44360	1301.29065	1683.76904	482.00467	1163.19495	1697.35681	498.04657	1032.38989	1669.05701	463.52487	897.56964	1700.16638	509.51950	909.10486	1701.34534	504.42734	841.44769	1241.93542	368.04630	1506.99280	1143.77600	368.90485	1320.90503	1116.43018	328.90497	1179.35107	1099.41382	270.35181	1073.80652	1120.68994	193.08936	964.37146	1084.23950	234.82350	949.63074	1083.15637	180.50742	900.86121	1540.99658	285.46649	997.13385	1284.99048	286.58463	976.89246	1461.43896	494.61340	1040.79016	1346.37939	498.62170	1039.97168	1616.52734	285.59436	697.19122	1591.31494	256.19040	502.09998	1581.55469	317.70953	319.33136	1556.09753	318.48053	96.34360	1496.87268	340.30042	70.93703	1600.17285	177.29930	47.79145	1239.54724	381.50580	670.02185	1290.70435	403.21133	462.26880	1290.37024	462.76221	282.60831	1337.81494	500.14182	94.10336	1394.58777	539.36267	42.19571	1322.68335	351.29233	37.36127	1400.30542	364.08136	1812.29297						 
85	0.840	1486.21960	250.23936	1741.78223	1343.64807	259.50983	1722.97656	1501.87048	382.92935	1672.20056	1361.28503	404.98032	1653.22437	1421.56042	446.81088	1532.24548	1404.48181	504.53647	1257.30676	1440.93872	309.58704	1459.34399	1425.06384	261.66245	1287.91138	1344.30640	503.36816	1362.32788	1604.87939	393.39279	1496.28723	1677.28149	448.81161	1300.75806	1682.98975	476.27786	1162.65625	1696.67700	494.10434	1032.26038	1668.95239	461.05200	896.96350	1699.71545	507.19034	909.17334	1700.92896	502.94571	841.44440	1242.22974	358.05243	1506.53479	1143.37317	357.46005	1320.73230	1115.95471	315.96277	1179.89514	1099.85767	255.24635	1075.39587	1121.93860	175.88441	967.83392	1085.09607	216.29044	951.98450	1084.67615	161.65941	904.52283	1541.26208	275.81668	996.02112	1284.74146	278.70514	976.03906	1462.34729	485.49640	1039.91455	1347.50024	490.28842	1039.23120	1616.59192	275.36166	696.17865	1590.83472	245.10434	500.68967	1583.51208	297.45358	314.70197	1559.09351	287.68356	91.67290	1500.47839	308.83884	65.08267	1601.54724	143.52681	49.56873	1240.04333	376.33322	669.39752	1291.04016	400.06787	461.72217	1290.69055	461.15424	282.73044	1338.08203	499.79095	94.33624	1395.06421	539.11438	42.33908	1322.60425	351.22632	37.49139	1401.76843	354.31702	1811.64795						 
86	0.850	1487.53479	240.67976	1740.48608	1344.92554	249.68108	1722.18433	1502.77368	373.48392	1671.04578	1361.93982	395.09384	1652.53662	1421.99048	437.33307	1531.36780	1405.32654	495.58090	1256.57629	1441.45203	300.17313	1458.27295	1425.22656	252.40236	1286.80566	1344.76318	494.02649	1361.58765	1605.00183	384.21756	1494.90564	1677.03162	441.47125	1299.79529	1682.81360	470.74139	1162.36023	1696.38940	489.99585	1032.05676	1669.09717	458.32907	896.45837	1699.26648	504.55762	909.13251	1700.48352	501.12924	841.18280	1243.09790	348.58862	1506.06958	1143.19775	345.94061	1320.72510	1115.66357	303.14355	1180.11243	1099.93945	240.02820	1076.85315	1123.06787	158.84149	970.96735	1086.32825	198.92503	954.12445	1085.91235	142.94858	907.83417	1541.55383	266.06427	994.75952	1284.65112	270.62906	975.23187	1463.39404	476.30972	1038.83435	1348.71521	481.92557	1038.35876	1616.83691	265.59192	695.23010	1590.46863	234.09290	499.40237	1585.62476	277.55045	310.79395	1562.17822	257.40912	88.07841	1503.30774	277.50461	60.14929	1602.96216	110.70071	52.45452	1240.51794	371.02783	668.73035	1291.45740	396.62091	461.40414	1291.03894	459.46710	282.91904	1338.24036	499.22528	94.56553	1395.19690	538.88910	42.69265	1322.41895	351.04816	37.33765	1403.13574	344.51578	1810.75525	-3356.83813	2846.11597	1033.70337			 
